<svg width="41" height="36" viewBox="0 0 41 36" fill="none" xmlns="http://www.w3.org/2000/svg">
<path d="M35.4405 11.9291L36.2812 12.2357C38.9721 13.2142 40.3603 16.1889 39.3818 18.8798C39.1513 19.5137 38.7993 20.0964 38.3456 20.5955L38.0051 20.97C34.7852 24.512 31.0431 27.5414 26.9083 29.9533L20.7746 33.5313C20.7098 33.5691 20.6298 33.5691 20.565 33.5313L14.4313 29.9533C10.2965 27.5414 6.5544 24.512 3.33443 20.97L2.99395 20.5955C1.06787 18.4768 1.22401 15.1979 3.34269 13.2718C3.84175 12.8181 4.42454 12.4662 5.0584 12.2357L5.90025 11.9266M13.7951 24.4258L7.14749 15.5627C5.08022 12.8064 5.63884 8.89604 8.3952 6.82877C8.93162 6.42645 9.5294 6.11324 10.1655 5.9012L11.312 5.51905C12.1043 5.25495 12.905 5.0253 13.7118 4.8301L14.0907 4.74091C13.4119 5.99395 13.214 7.49725 13.6292 8.95031M13.6292 8.95031L17.4534 22.336M13.6292 8.95031C12.8885 6.35788 14.0992 3.60554 16.5108 2.39978C19.1289 1.0907 22.2106 1.0907 24.8288 2.39978C27.2403 3.60554 28.4511 6.35788 27.7104 8.95031M23.8853 22.3357L27.7104 8.95031M27.7104 8.95031C28.1253 7.49806 27.9279 5.99563 27.25 4.74301C28.1847 4.95451 29.1117 5.21376 30.0276 5.51905L31.1741 5.9012C34.4427 6.99075 36.2092 10.5238 35.1196 13.7924C34.9076 14.4285 34.5944 15.0263 34.1921 15.5627L27.5433 24.4248" stroke="white" stroke-width="1.94954" stroke-linecap="round"/>
<path fill-rule="evenodd" clip-rule="evenodd" d="M31.067 27.223L31.0675 31.187C31.0675 32.9098 29.6709 34.3063 27.9482 34.3063H13.3916C11.6689 34.3063 10.2724 32.9098 10.2724 31.187L10.2704 27.2212C11.6064 28.2036 12.9952 29.1158 14.4314 29.9536L20.5651 33.5316C20.6299 33.5694 20.7099 33.5694 20.7747 33.5316L26.9084 29.9536C28.3438 29.1163 29.7317 28.2047 31.067 27.223Z" stroke="white" stroke-width="1.94954" stroke-linecap="round"/>
</svg>
