<svg width="22" height="20" viewBox="0 0 22 20" fill="none" xmlns="http://www.w3.org/2000/svg">
<path d="M2.70038 11.3481C4.3532 12.6109 5.43321 14.4815 5.70038 16.5442M1.76589 12.259L2.11211 12.51C3.40298 13.446 4.23485 14.8868 4.39999 16.4727L4.49492 17.3843C4.57095 18.1145 5.22454 18.6448 5.95474 18.5688C6.03302 18.5606 6.11042 18.5455 6.18603 18.5237C7.07992 18.2654 7.67779 17.425 7.62864 16.4959L7.46568 13.4152C7.3848 11.8861 6.57501 10.4888 5.28855 9.65843L4.98594 9.46311C3.95021 8.79457 2.59831 8.88594 1.66195 9.68777C0.974572 10.2764 0.894516 11.3108 1.48315 11.9982C1.56683 12.0959 1.66173 12.1835 1.76589 12.259Z" stroke="white" stroke-linecap="round"/>
<path d="M12.8431 3.80326C11.5735 5.45079 11.0144 7.53719 11.2902 9.59882M13.9815 4.44125L13.7121 4.77334C12.7074 6.01153 12.2768 7.61857 12.5278 9.19319L12.672 10.0983C12.7876 10.8233 12.2935 11.5047 11.5685 11.6202C11.4908 11.6326 11.4121 11.6381 11.3334 11.6365C10.4032 11.6184 9.60816 10.9614 9.41516 10.0512L8.77522 7.03328C8.4576 5.53541 8.87814 3.9761 9.90584 2.84105L10.1476 2.57406C10.975 1.66024 12.3045 1.3986 13.4165 1.93076C14.2328 2.32143 14.5778 3.29987 14.1872 4.11618C14.1316 4.23224 14.0626 4.34135 13.9815 4.44125Z" stroke="white" stroke-linecap="round"/>
<path d="M13.2397 15.8501C15.1631 15.0581 16.6904 13.5307 17.4824 11.6074M12.5728 14.7283L12.9722 14.5755C14.4614 14.0055 15.6378 12.8291 16.2078 11.3399L16.5354 10.484C16.7978 9.79833 17.5664 9.45525 18.2521 9.71769C18.3256 9.74582 18.3964 9.78043 18.4638 9.8211C19.2604 10.3019 19.6204 11.2684 19.3324 12.1532L18.3777 15.0867C17.9038 16.5427 16.7599 17.6829 15.3024 18.152L14.9596 18.2624C13.7861 18.64 12.5039 18.2019 11.807 17.185C11.2954 16.4386 11.4858 15.4187 12.2322 14.9071C12.3384 14.8343 12.4527 14.7743 12.5728 14.7283Z" stroke="white" stroke-linecap="round"/>
</svg>
