<svg width="51" height="51" viewBox="0 0 51 51" fill="none" xmlns="http://www.w3.org/2000/svg">
<path d="M34.7778 22.8949C34.9663 23.0854 35.1097 23.3076 35.2053 23.5464L37.8843 23.534C38.6595 23.5298 39.3599 23.0705 39.6727 22.3611C40.0795 21.4385 39.7203 20.3719 38.8714 19.8735L38.6981 19.7847L40.6701 19.1191C41.1634 18.9523 41.5704 18.5966 41.8018 18.1301C42.2842 17.1573 41.8867 15.9776 40.9139 15.4951L40.1406 15.1102L40.6952 14.5575C41.8398 13.4128 41.8398 11.557 40.6952 10.4123C39.5505 9.26768 37.6947 9.26768 36.55 10.4123L35.9719 10.9886L35.5416 10.1229C35.3103 9.65634 34.9033 9.30066 34.41 9.13386C33.3813 8.78605 32.2655 9.33799 31.9177 10.3667L31.3077 12.1649L31.2926 12.1209C31.0112 11.3558 30.2844 10.8457 29.4693 10.8413C28.3901 10.8355 27.5106 11.7056 27.5048 12.7847L27.4896 15.7491C27.6722 15.8404 27.8425 15.9611 27.9929 16.11M34.7778 22.8949C34.0141 22.1229 32.7693 22.1162 31.9973 22.8799L12.5607 42.108C12.0826 42.581 11.3959 42.7768 10.7403 42.6271M34.7778 22.8949C35.35 23.4732 35.5064 24.3436 35.1731 25.0843L36.8754 24.243C37.8487 23.7616 39.028 24.1603 39.5095 25.1337C39.7403 25.6004 39.7766 26.1397 39.6104 26.6332L39.2611 27.6683L41.1537 27.6685C42.6799 27.6685 43.9172 28.9057 43.9172 30.432C43.9172 31.9582 42.6799 33.1954 41.1537 33.1954L39.2611 33.1936L39.6104 34.2307C39.9571 35.2598 39.404 36.375 38.3749 36.7218C37.8815 36.888 37.3422 36.8517 36.8754 36.6209L35.0127 35.6994L35.0701 35.8824C35.3179 36.8351 34.8177 37.8433 33.8777 38.208C33.1549 38.4884 32.3349 38.318 31.7838 37.7728L27.1567 33.1954L15.9553 44.2767C14.4231 45.7924 11.9564 45.7924 10.4242 44.2767L8.16161 42.0384L10.7403 42.6271M10.7403 42.6271L8.72256 42.1655L8.26074 40.1475M8.26074 40.1475C8.11106 39.4919 8.30686 38.8052 8.77981 38.3271M8.26074 40.1475L8.84944 42.7262L6.6111 40.4636C5.09539 38.9314 5.09539 36.4647 6.6111 34.9326L17.6924 23.7311L13.1151 19.1041C12.5699 18.5529 12.3994 17.7329 12.6798 17.0101C13.0445 16.0701 14.0527 15.5699 15.0054 15.8177L15.1884 15.8751L14.2669 14.0124C14.0361 13.5456 13.9998 13.0064 14.1661 12.5129C14.5128 11.4838 15.6281 10.9307 16.6571 11.2775L17.6942 11.6267L17.6924 9.73408C17.6924 8.20788 18.9297 6.97065 20.4559 6.97065C21.9821 6.97065 23.2193 8.20788 23.2193 9.73408L23.2195 11.6267L24.2546 11.2775C24.7481 11.1112 25.2874 11.1475 25.7542 11.3783C26.7275 11.8598 27.1262 13.0391 26.6448 14.0124L25.8035 15.7147C26.5442 15.3814 27.4146 15.5378 27.9929 16.11M8.77981 38.3271L22.3064 24.6526L27.4684 19.4921L27.4677 19.4355L28.0079 18.8905M8.77981 38.3271L28.0079 18.8905M28.0079 18.8905C28.7716 18.1185 28.7649 16.8737 27.9929 16.11M35.3474 15.6893L33.3722 17.6645M20.4559 15.3509L20.4559 18.1443M15.584 27.2333L23.8743 35.5236M35.537 30.4319L32.7436 30.432" stroke="white" stroke-width="1.94954" stroke-linecap="round"/>
</svg>
