<svg width="20" height="20" viewBox="0 0 20 20" fill="none" xmlns="http://www.w3.org/2000/svg">
<path d="M1.5 18.5L16.0355 3.96446M1.5 18.5L2.79089 17.2091C3.85261 16.1474 4.06119 14.5017 3.29793 13.2087M1.5 18.5L5.66569 14.3343C6.63625 13.3637 6.63625 11.7902 5.66569 10.8196M1.5 18.5L9.20123 10.7988C9.78126 10.2187 9.78126 9.27831 9.20123 8.69827M1.5 18.5L13.7974 6.20258C14.1822 5.8178 14.1822 5.19396 13.7974 4.80918M1.5 18.5L12.3832 7.61679C12.768 7.23202 12.768 6.60817 12.3832 6.22339M1.5 18.5L2.80581 17.1942C3.86574 16.1343 5.49819 15.9015 6.81214 16.6229M1.5 18.5L5.64488 14.3551C6.62694 13.3731 8.21917 13.3731 9.20122 14.3551M1.5 18.5L9.18041 10.8196C9.77194 10.2281 10.731 10.2281 11.3225 10.8196M1.5 18.5L13.7766 6.22339C14.1729 5.82712 14.8154 5.82712 15.2116 6.22339M1.5 18.5L12.3624 7.63761C12.7587 7.24134 13.4011 7.24134 13.7974 7.63761M4.59317 9.72588L5.12587 10.6137C5.55209 11.3241 5.32174 12.2455 4.61137 12.6717C4.37825 12.8116 4.11149 12.8855 3.83963 12.8855L2.77424 12.8855C1.94581 12.8855 1.27424 12.2139 1.27424 11.3855C1.27424 11.1136 1.34813 10.8468 1.488 10.6137L2.0207 9.72588C2.44692 9.01551 3.36831 8.78517 4.07868 9.21139M4.59317 9.72588C4.4665 9.51476 4.2898 9.33806 4.07868 9.21139M4.59317 9.72588L4.99875 10.4043C5.13412 10.4445 5.27749 10.466 5.42589 10.466L6.49128 10.466C6.76315 10.466 7.0299 10.3921 7.26302 10.2523C7.97339 9.82605 8.20374 8.90466 7.77752 8.19429M4.07868 9.21139C4.03211 9.18344 3.98463 9.15832 3.93644 9.13598C3.92915 9.08071 3.92589 9.02375 3.92589 8.96603C3.92589 8.69417 3.99978 8.42741 4.13965 8.19429L4.67235 7.30647C5.09857 6.5961 6.01996 6.36575 6.73033 6.79197M9.40711 14.8949L10.2949 15.4276C10.5061 15.5543 10.6828 15.731 10.8094 15.9421C11.2356 16.6525 11.0053 17.5739 10.2949 18.0001M9.40711 14.8949C8.69673 14.4687 7.77534 14.6991 7.34912 15.4094C7.20925 15.6426 7.13536 15.9093 7.13536 16.1812L7.13536 17.2466C7.13536 18.075 7.80694 18.7466 8.63536 18.7466C8.90723 18.7466 9.17398 18.6727 9.40711 18.5328L10.2949 18.0001M9.40711 14.8949L9.61619 15.0211C9.57623 14.886 9.55478 14.743 9.55478 14.5949L9.55478 13.5295C9.55478 13.2577 9.62867 12.9909 9.76854 12.7578C10.1948 12.0474 11.1162 11.8171 11.8265 12.2433M10.2949 18.0001C10.9587 17.6018 11.2034 16.7712 10.8839 16.0853C10.94 16.0917 10.997 16.0949 11.0548 16.0949C11.3266 16.0949 11.5934 16.021 11.8265 15.8812L12.7143 15.3485C13.4247 14.9222 13.6551 14.0009 13.2288 13.2905M7.77752 8.19429L7.24482 7.30647C7.11815 7.09534 6.94145 6.91865 6.73033 6.79197M7.77752 8.19429C7.80604 8.24182 7.83161 8.29029 7.85431 8.3395L7.96142 8.34471L9.02681 8.34471C9.29868 8.34471 9.56543 8.27083 9.79856 8.13095C10.5089 7.70473 10.7393 6.78334 10.3131 6.07297L9.78036 5.18515C9.65368 4.97402 9.47699 4.79732 9.26586 4.67065C8.55549 4.24443 7.6341 4.47478 7.20788 5.18515L6.67518 6.07297C6.56562 6.25558 6.49654 6.45883 6.473 6.66888C6.56092 6.70108 6.64707 6.74202 6.73033 6.79197M13.2288 13.2905C13.1022 13.0794 12.9255 12.9027 12.7143 12.776L11.8265 12.2433M13.2288 13.2905C13.2788 13.3737 13.3197 13.4599 13.3518 13.5491C13.562 13.5243 13.7652 13.4552 13.9478 13.3456L14.8357 12.8129C15.546 12.3867 15.7764 11.4653 15.3502 10.755C15.2235 10.5438 15.0468 10.3671 14.8357 10.2405L13.9478 9.70776C13.2375 9.28154 12.3161 9.51189 11.8899 10.2223C11.75 10.4554 11.6761 10.7221 11.6761 10.994L11.6761 12.0594L11.6813 12.1665C11.7305 12.1892 11.779 12.2148 11.8265 12.2433M12.6484 3.83691C13.063 4.52788 12.8389 5.42411 12.1479 5.83869C11.9212 5.97475 11.6617 6.04662 11.3973 6.04662L11.2478 6.04662C10.442 6.04662 9.7888 5.39338 9.7888 4.58758C9.7888 4.32314 9.86067 4.06367 9.99672 3.83691C10.4361 3.10468 11.3858 2.86724 12.118 3.30658C12.3357 3.43715 12.5178 3.61929 12.6484 3.83691ZM16.891 8.07955C17.3056 8.77052 17.0815 9.66675 16.3906 10.0813C16.1638 10.2174 15.9043 10.2893 15.6399 10.2893L15.4905 10.2893C14.6847 10.2893 14.0314 9.63602 14.0314 8.83022C14.0314 8.56578 14.1033 8.30631 14.2394 8.07955C14.6787 7.34732 15.6284 7.10988 16.3607 7.54922C16.5783 7.67979 16.7604 7.86193 16.891 8.07955ZM15.4768 2.4227C15.8914 3.11367 15.6673 4.0099 14.9764 4.42448C14.7496 4.56053 14.4901 4.6324 14.2257 4.6324L14.0763 4.6324C13.2705 4.6324 12.6172 3.97917 12.6172 3.17336C12.6172 2.90892 12.6891 2.64945 12.8251 2.42269C13.2645 1.69046 14.2142 1.45303 14.9465 1.89236C15.1641 2.02294 15.3462 2.20507 15.4768 2.4227ZM18.3052 5.25112C18.7198 5.94209 18.4957 6.83832 17.8048 7.25291C17.578 7.38896 17.3186 7.46083 17.0541 7.46083L16.9047 7.46083C16.0989 7.46083 15.4457 6.8076 15.4457 6.00179C15.4457 5.73735 15.5175 5.47788 15.6536 5.25112C16.0929 4.51889 17.0427 4.28145 17.7749 4.72079C17.9925 4.85137 18.1747 5.0335 18.3052 5.25112ZM19.0123 1.71559C19.4269 2.40656 19.2029 3.30279 18.5119 3.71737C18.2851 3.85343 18.0257 3.9253 17.7612 3.9253L17.6118 3.9253C16.806 3.9253 16.1528 3.27206 16.1528 2.46626C16.1528 2.20182 16.2246 1.94235 16.3607 1.71559C16.8 0.983355 17.7498 0.745918 18.482 1.18526C18.6996 1.31583 18.8818 1.49797 19.0123 1.71559Z" stroke="white" stroke-linecap="round"/>
</svg>
