<svg width="40" height="40" viewBox="0 0 40 40" fill="none" xmlns="http://www.w3.org/2000/svg">
<path d="M5.4526 11.6915L9.7248 12.4035C10.1076 12.4673 10.4951 12.4994 10.8832 12.4994C14.7749 12.4994 17.9297 9.34461 17.9297 5.45297L13.7706 7.53248V1.29395L13.3555 1.30412C8.95443 1.52045 5.4526 5.15727 5.4526 9.61199V11.6915ZM5.4526 11.6915V13.0214C5.4526 14.8559 6.05905 16.6389 7.17756 18.093L9.61162 21.2572M8.57187 22.0891H5.94351C4.36818 22.0891 2.92807 22.9791 2.22356 24.3881L1.29358 26.2481M7.11621 28.3276H5.94351C4.36818 28.3276 2.92807 29.2176 2.22356 30.6266L1.29358 32.4866M12.7309 34.5661H10.1025C8.52721 34.5661 7.08709 35.4562 6.38259 36.8652L5.4526 38.7251M31.4465 22.0891H34.0748C35.6502 22.0891 37.0903 22.9791 37.7948 24.3881L38.7248 26.2481M32.9021 28.3276H34.0748C35.6502 28.3276 37.0903 29.2176 37.7948 30.6266L38.7248 32.4866M27.2875 34.5661H29.9158C31.4911 34.5661 32.9313 35.4562 33.6358 36.8652L34.5658 38.7251M34.5658 11.6915V13.0214C34.5658 14.8559 33.9593 16.6389 32.8408 18.093L30.4067 21.2572M34.5658 11.6915L30.2936 12.4035C29.9107 12.4673 29.5232 12.4994 29.1351 12.4994C25.2435 12.4994 22.0887 9.34461 22.0887 5.45297L26.2477 7.53248V1.29395L26.6629 1.30412C31.0639 1.52045 34.5658 5.15727 34.5658 9.61199V11.6915ZM12.2951 34.1973L14.0306 35.216C17.7219 37.3826 22.2965 37.3826 25.9878 35.216L27.7233 34.1973C30.4275 32.61 32.3434 29.9628 33.0061 26.8979C33.5437 24.4115 31.9639 21.96 29.4774 21.4223L29.3287 21.3927L27.0275 21.0493C22.374 20.3599 17.6443 20.3599 12.9908 21.0493L10.8393 21.368C8.32289 21.7408 6.58512 24.0831 6.95793 26.5995C6.97275 26.6996 6.99086 26.7991 7.01223 26.8979C7.6749 29.9628 9.59082 32.61 12.2951 34.1973Z" stroke="white" stroke-width="1.94954" stroke-linecap="round"/>
<path fill-rule="evenodd" clip-rule="evenodd" d="M16.8899 17.0981V16.8901V17.0981Z" stroke="white" stroke-width="2.92431" stroke-linecap="round" stroke-linejoin="round"/>
<path fill-rule="evenodd" clip-rule="evenodd" d="M23.1284 17.0981V16.8901V17.0981Z" stroke="white" stroke-width="2.92431" stroke-linecap="round" stroke-linejoin="round"/>
</svg>
