<svg width="51" height="50" viewBox="0 0 51 50" fill="none" xmlns="http://www.w3.org/2000/svg">
<path fill-rule="evenodd" clip-rule="evenodd" d="M18.0704 8.37305C22.6206 8.37305 26.6456 13.7117 29.0952 19.5714C30.8964 16.6781 33.2158 14.5316 35.7463 14.5316C41.4887 14.5316 46.1438 25.5852 46.1438 31.3276C46.1438 37.0701 41.4887 41.7252 35.7463 41.7252C32.933 41.7252 30.3807 40.6079 28.5089 38.7929C26.0333 41.8039 22.2761 43.7247 18.0704 43.7247C10.6053 43.7247 4.55359 37.673 4.55359 30.2079C4.55359 28.3077 4.9457 25.9601 5.65342 23.516L5.97583 22.4637C8.19419 15.5983 12.777 8.37305 18.0704 8.37305ZM18.0704 43.7247C25.5355 43.7247 31.5872 37.673 31.5872 30.2079C31.5872 28.3077 31.1951 25.9601 30.4874 23.516L30.165 22.4637C27.9466 15.5983 23.3639 8.37305 18.0704 8.37305C12.777 8.37305 8.19419 15.5983 5.97583 22.4637L5.65342 23.516C4.9457 25.9601 4.55359 28.3077 4.55359 30.2079C4.55359 37.673 10.6053 43.7247 18.0704 43.7247Z" stroke="white" stroke-width="1.94954" stroke-linecap="round"/>
</svg>
