<svg width="42" height="32" viewBox="0 0 42 32" fill="none" xmlns="http://www.w3.org/2000/svg">
<path fill-rule="evenodd" clip-rule="evenodd" d="M12.1194 10.5568C21.7668 4.53936 34.4657 7.48202 40.4831 17.1294L40.0078 17.8569C38.8638 19.5294 37.4782 21.0252 35.895 22.2948C27.802 28.785 16.3067 28.1682 8.95169 21.2733C7.77246 24.3138 4.71244 26.3653 1.28827 26.1169L0.972412 26.0873V25.5514C0.972412 22.3391 2.37873 19.4049 4.65743 17.3972C2.53907 15.7536 1.14397 13.238 0.987175 10.4096L0.972412 9.87571V8.17154L1.40345 8.18888C4.64157 8.39879 7.41406 10.3839 8.72282 13.2074C9.75494 12.2106 10.8942 11.321 12.1194 10.5568ZM23.9245 26.8028L24.198 26.7895C22.6821 28.2992 20.8237 29.4458 18.7087 30.0668C17.0654 30.5492 15.4115 30.672 13.8167 30.4791C14.5954 28.8972 15.1995 27.2062 15.6091 25.4443C18.26 26.4663 21.0964 26.9256 23.9245 26.8028ZM25.9541 7.35608L26.1694 7.68011C22.0943 7.04643 17.8132 7.62778 13.9086 9.55915C12.7153 7.03791 11.1148 4.8401 9.22968 3.04409C10.0431 2.59191 10.9141 2.22258 11.8336 1.95262C17.2607 0.359252 22.8036 2.68935 25.9541 7.35608Z" stroke="white" stroke-width="1.94954" stroke-linecap="round"/>
<path fill-rule="evenodd" clip-rule="evenodd" d="M31.1252 15.1772V14.9692V15.1772Z" stroke="white" stroke-width="2.92431" stroke-linecap="round" stroke-linejoin="round"/>
</svg>
