<svg width="41" height="40" viewBox="0 0 41 40" fill="none" xmlns="http://www.w3.org/2000/svg">
<path fill-rule="evenodd" clip-rule="evenodd" d="M6.4704 18.898C10.5767 21.9778 11.4088 27.8033 8.32899 31.9096C7.9063 32.4732 7.42126 32.9864 6.88348 33.4396L6.4704 33.7682C2.36411 30.6884 1.53199 24.8629 4.61181 20.7566C5.0345 20.193 5.51954 19.6798 6.05732 19.2265L6.4704 18.898ZM13.9052 11.4629C18.0115 14.5427 18.8437 20.3682 15.7638 24.4745C15.3411 25.0381 14.8561 25.5513 14.3183 26.0045L13.9052 26.3331C9.79895 23.2533 8.96684 17.4278 12.0467 13.3215C12.4693 12.7579 12.9544 12.2447 13.4922 11.7914L13.9052 11.4629ZM21.3401 4.0278C25.4464 7.10762 26.2785 12.9331 23.1987 17.0394C22.776 17.603 22.291 18.1162 21.7532 18.5694L21.3401 18.898C17.2338 15.8182 16.4017 9.99268 19.4815 5.88639C19.9042 5.32283 20.3892 4.80961 20.927 4.35635L21.3401 4.0278ZM36.2098 18.898C33.1303 23.0041 27.3051 23.8364 23.199 20.7569C22.6353 20.3342 22.122 19.849 21.6687 19.3111L21.3401 18.898C24.4196 14.7918 30.2447 13.9596 34.3509 17.0391C34.9145 17.4618 35.4279 17.9469 35.8812 18.4848L36.2098 18.898ZM28.7749 26.3331C25.6954 30.4392 19.8703 31.2715 15.7641 28.192C15.2005 27.7693 14.6872 27.2841 14.2338 26.7462L13.9052 26.3331C16.9848 22.2269 22.8099 21.3947 26.916 24.4742C27.4797 24.8969 27.993 25.382 28.4463 25.9199L28.7749 26.3331ZM21.3401 33.7682C18.2606 37.8743 12.4355 38.7066 8.3293 35.6271C7.76563 35.2043 7.25233 34.7192 6.799 34.1813L6.4704 33.7682C9.54991 29.662 15.375 28.8298 19.4812 31.9093C20.0449 32.332 20.5582 32.8171 21.0115 33.355L21.3401 33.7682ZM37.7496 2.48794C38.4755 7.56945 34.9449 12.2769 29.8637 13.0028C29.1663 13.1024 28.4604 13.1223 27.7596 13.0625L27.2351 13.0024C26.5092 7.92125 30.0399 3.21378 35.121 2.48793C35.9928 2.36339 36.8778 2.3634 37.7496 2.48794Z" stroke="white" stroke-width="1.94954" stroke-linecap="round"/>
</svg>
