<svg width="22" height="41" viewBox="0 0 22 41" fill="none" xmlns="http://www.w3.org/2000/svg">
<path d="M5.52902 1.63306H15.9266M2.00956 17.2534L3.94087 14.1862C5.63452 11.4964 6.72316 8.47049 7.13134 5.31819L7.60853 1.63306H13.8471L14.2785 5.08446C14.6792 8.29034 15.7739 11.3704 17.4862 14.1101L19.4534 17.2577C19.8665 17.9187 20.0856 18.6825 20.0856 19.4619V34.9052C20.0856 37.2022 18.2235 39.0642 15.9266 39.0642H5.52902C3.23205 39.0642 1.37 37.2022 1.37 34.9052V19.4695C1.37 18.6853 1.59171 17.917 2.00956 17.2534ZM1.37 24.5077L2.67654 24.9432C5.76538 25.9728 9.16281 25.4215 11.7675 23.4679L12.2066 23.1386C14.3598 21.5237 17.2001 21.1887 19.6563 22.2301L20.0856 22.4282V34.9052C20.0856 37.2022 18.2235 39.0642 15.9266 39.0642H5.52902C3.23205 39.0642 1.37 37.2022 1.37 34.9052V24.5077Z" stroke="white" stroke-width="1.94954" stroke-linecap="round"/>
</svg>
