<svg width="33" height="39" viewBox="0 0 33 39" fill="none" xmlns="http://www.w3.org/2000/svg">
<path fill-rule="evenodd" clip-rule="evenodd" d="M16.367 37.0641C24.6851 34.2914 28.8441 29.6635 28.8441 23.1803V18.3485H3.88994V23.1803C3.88994 29.6635 8.04897 34.2914 16.367 37.0641ZM7.00921 7.95093L12.7793 6.30235C13.672 6.04728 14.2875 5.23131 14.2875 4.30285V1.7124H18.4465L17.5263 3.55275C17.0127 4.57999 17.4291 5.82909 18.4563 6.34271C18.592 6.41056 18.7348 6.46336 18.882 6.50016L24.6851 7.95093C29.1398 9.06461 31.9011 13.4757 31.0172 17.9308L30.9236 18.3485H1.81043L1.5668 17.374C0.543129 13.2793 2.95089 9.11046 7.00921 7.95093Z" stroke="white" stroke-width="1.94954" stroke-linecap="square"/>
</svg>
