<svg width="36" height="35" viewBox="0 0 36 35" fill="none" xmlns="http://www.w3.org/2000/svg">
<path fill-rule="evenodd" clip-rule="evenodd" d="M29.9498 23.8456C30.2544 23.5411 30.7481 23.5411 31.0527 23.8456C31.3572 24.1501 31.3572 24.6439 31.0527 24.9484L30.5012 25.4999C29.766 29.1759 28.847 31.5654 27.7442 32.6682C26.0899 34.3225 23.7527 34.1909 22.23 32.6682C20.7073 31.1455 20.5758 28.8083 22.23 27.1541C23.3329 26.0513 25.7223 25.1322 29.3984 24.397L29.9498 23.8456ZM2.8761 23.534C3.09144 23.1611 3.56837 23.0333 3.94135 23.2486L4.61669 23.6385C8.35781 23.3972 10.9037 23.6665 12.2544 24.4463C14.2804 25.6161 14.7583 27.9077 13.6816 29.7726C12.6049 31.6375 10.3813 32.3695 8.35531 31.1997C7.00463 30.4199 5.49849 28.3497 3.83688 24.9892L3.16154 24.5993C2.78856 24.384 2.66076 23.907 2.8761 23.534ZM18.6764 7.68163C19.1071 7.68163 19.4562 8.03077 19.4562 8.46145V9.24126C21.5357 12.3605 22.5755 14.7 22.5755 16.2596C22.5755 18.5991 20.8298 20.1587 18.6764 20.1587C16.523 20.1587 14.7773 18.5991 14.7773 16.2596C14.7773 14.7 15.8171 12.3605 17.8966 9.24126V8.46145C17.8966 8.03077 18.2457 7.68163 18.6764 7.68163ZM29.1857 5.6308C31.2657 5.07346 33.3556 6.12813 33.9611 8.38787C34.3648 9.89436 33.9659 12.4232 32.7646 15.9744L32.9664 16.7276C33.0779 17.1437 32.831 17.5713 32.415 17.6827C31.999 17.7942 31.5714 17.5473 31.4599 17.1313L31.2581 16.3781C28.4421 13.9033 26.8323 11.9127 26.4286 10.4062C25.8232 8.14645 27.1057 6.18814 29.1857 5.6308ZM7.65807 1.6303L7.81397 1.65567C8.22998 1.76714 8.47685 2.19474 8.36539 2.61075L8.16355 3.36399C9.36488 6.91519 9.76371 9.44403 9.36005 10.9505C8.75456 13.2103 6.6647 14.2649 4.58467 13.7076C2.50464 13.1502 1.22211 11.1919 1.8276 8.93221C2.23127 7.42572 3.84109 5.43509 6.65706 2.96033L6.8589 2.20709C6.97036 1.79108 7.39797 1.5442 7.81397 1.65567L7.65807 1.6303Z" stroke="white" stroke-width="1.94954" stroke-linecap="round"/>
</svg>
