<svg width="50" height="50" viewBox="0 0 50 50" fill="none" xmlns="http://www.w3.org/2000/svg">
<path fill-rule="evenodd" clip-rule="evenodd" d="M15.6514 6.31201H26.2273C28.1103 6.31201 29.9162 7.06003 31.2477 8.39152C32.5792 9.72301 33.3272 11.5289 33.3272 13.4119V13.5903C33.3272 15.615 33.9839 17.5852 35.1988 19.205L36.4465 20.8686C38.3326 23.3834 38.5083 26.7899 36.891 29.4855L35.467 31.8588C34.0668 34.1924 33.3272 36.8627 33.3272 39.5842C33.3272 41.9706 31.5724 43.9939 29.21 44.3314L18.7706 45.8227V38.366C18.7706 36.6399 19.3992 34.9787 20.5295 33.6882L20.8816 33.3142C22.127 32.0688 22.5222 30.2067 21.8899 28.5628L21.8206 28.3826C21.2543 26.9102 21.2233 25.2911 21.7238 23.8054L21.8899 23.364C22.519 21.854 22.1748 20.1137 21.0181 18.957L20.8501 18.7891C19.5187 17.4576 18.7706 15.6517 18.7706 13.7687V9.43128C18.7706 7.70855 17.3741 6.31201 15.6514 6.31201ZM26.0489 41.6637C27.7716 41.6637 29.1682 40.2671 29.1682 38.5444C29.1682 36.8217 27.7716 35.4252 26.0489 35.4252C24.3262 35.4252 22.9297 36.8217 22.9297 38.5444C22.9297 40.2671 24.3262 41.6637 26.0489 41.6637ZM29.1682 30.2264C31.4652 30.2264 33.3272 28.3643 33.3272 26.0674C33.3272 23.7704 31.4652 21.9083 29.1682 21.9083C26.8712 21.9083 25.0092 23.7704 25.0092 26.0674C25.0092 28.3643 26.8712 30.2264 29.1682 30.2264ZM26.0489 17.7493C27.7716 17.7493 29.1682 16.3528 29.1682 14.6301C29.1682 12.9073 27.7716 11.5108 26.0489 11.5108C24.3262 11.5108 22.9297 12.9073 22.9297 14.6301C22.9297 16.3528 24.3262 17.7493 26.0489 17.7493Z" stroke="white" stroke-width="1.94954" stroke-linecap="round"/>
</svg>
