<svg width="31" height="40" viewBox="0 0 31 40" fill="none" xmlns="http://www.w3.org/2000/svg">
<path d="M10.5292 1.31201H20.9267M12.6087 16.0207V1.31201H18.8472V15.8686L29.3362 32.3513C30.5694 34.2892 29.9981 36.8598 28.0603 38.093C27.393 38.5176 26.6184 38.7432 25.8274 38.7432H5.65573C3.35876 38.7432 1.4967 36.8811 1.4967 34.5842C1.4967 33.7889 1.72471 33.0103 2.15369 32.3407L12.6087 16.0207ZM6.05822 26.2661H25.5016L29.3604 32.3589C30.5894 34.2994 30.0126 36.8688 28.0721 38.0978C27.4064 38.5194 26.6347 38.7432 25.8468 38.7432H5.66241C3.36544 38.7432 1.50339 36.8811 1.50339 34.5842C1.50339 33.7879 1.73199 33.0083 2.16204 32.3381L6.05822 26.2661Z" stroke="white" stroke-width="1.94954" stroke-linecap="round"/>
</svg>
