<svg width="32" height="38" viewBox="0 0 32 38" fill="none" xmlns="http://www.w3.org/2000/svg">
<path d="M16.0276 8.66964V29.4648M8.92775 9.88779C7.30355 11.512 7.30355 14.1453 8.92775 15.7695C9.8971 16.7389 11.2259 17.1297 12.4851 16.942M21.048 30.3261C22.6722 28.7019 22.6722 26.0686 21.048 24.4444M25.1105 16.0297C23.8923 14.8116 21.9173 14.8116 20.6992 16.0297M6.97438 26.1375C8.19253 27.3557 10.1675 27.3557 11.3857 26.1375M16.0276 36.743C26.4252 36.743 30.5842 28.425 30.5842 20.3516C30.5842 11.8705 25.732 5.55038 16.0276 1.39136C6.32326 5.55038 1.47107 11.8705 1.47107 20.3516C1.47107 28.425 5.63009 36.743 16.0276 36.743ZM16.0276 6.94692L18.2359 9.15457C18.8177 8.84504 19.4817 8.66964 20.1867 8.66964C22.4836 8.66964 24.3457 10.5317 24.3457 12.8287C24.3457 13.6857 24.0865 14.4822 23.6421 15.144C25.2624 15.7085 26.4252 17.2521 26.4252 19.0672C26.4252 19.825 26.2225 20.5355 25.8684 21.1474C26.2225 21.7579 26.4252 22.4684 26.4252 23.2262C26.4252 25.5232 24.5631 27.3852 22.2662 27.3852C22.2662 29.6822 20.4041 31.5443 18.1072 31.5443C17.3496 31.5443 16.6393 31.3417 16.0275 30.9878C15.4176 31.3412 14.7066 31.5443 13.9481 31.5443C11.6512 31.5443 9.78911 29.6822 9.78911 27.3852L9.47872 27.3738C7.32672 27.2151 5.63009 25.4188 5.63009 23.2262C5.63009 22.4684 5.83278 21.7579 6.18689 21.146C5.83278 20.5355 5.63009 19.825 5.63009 19.0672C5.63009 17.2521 6.79289 15.7085 8.41423 15.1408C7.96884 14.4822 7.7096 13.6857 7.7096 12.8287C7.7096 10.5317 9.57166 8.66964 11.8686 8.66964C12.5736 8.66964 13.2376 8.84504 13.8193 9.15457L16.0276 6.94692Z" stroke="white" stroke-width="1.94954" stroke-linecap="square"/>
</svg>
